<svg xmlns="http://www.w3.org/2000/svg" viewBox="-164.12 -103.34 339.04 339.04" width="339" height="339" xmlns:c2pa="http://c2pa.org/manifest"><metadata><c2pa:manifest>AAAWgmp1bWIAAAAeanVtZGMycGEAEQAQgAAAqgA4m3EDYzJwYQAAABZcanVtYgAAAEdqdW1kYzJtYQARABCAAACqADibcQN1cm46YzJwYTphZDdiMzUxNC01MjdjLTQwY2YtYTk5Ny1lNmU2NzE5N2M5ZGEAAAADl2p1bWIAAAApanVtZGMyYXMAEQAQgAAAqgA4m3EDYzJwYS5hc3NlcnRpb25zAAAAALxqdW1iAAAARGp1bWRjYm9yABEAEIAAAKoAOJtxE2MycGEuaW5ncmVkaWVudC52MwAAAAAYYzJzaABwBYkyrO9ucqEJ5QuzD58AAABwY2JvcqNpZGM6Zm9ybWF0bWltYWdlL3N2Zyt4bWxqaW5zdGFuY2VJRHgseG1wOmlpZDozZDNmZDhmNS0xZDhmLTQxNDMtYTUxNy02N2UxNGY3NGNhMmRscmVsYXRpb25zaGlwaHBhcmVudE9mAAAB4mp1bWIAAABBanVtZGNib3IAEQAQgAAAqgA4m3ETYzJwYS5hY3Rpb25zLnYyAAAAABhjMnNoEuf2mxzbOnZKXt8Wo3XMoAAAAZljYm9yomdhY3Rpb25zgqJmYWN0aW9ua2MycGEub3BlbmVkanBhcmFtZXRlcnOha2luZ3JlZGllbnRzgaJjdXJseC1zZWxmI2p1bWJmPWMycGEuYXNzZXJ0aW9ucy9jMnBhLmluZ3JlZGllbnQudjNkaGFzaFggCuVlDt2qFv59d2PEzketaiPVr7I/ncyM+d8WyszxjuSkZmFjdGlvbngdY29tLmFudGhyb3BpYy5jbGF1ZGUucHJvdmlkZWRqcGFyYW1ldGVyc6F4H2NvbS5hbnRocm9waWMub3JpZ2luLWNvbmZpZGVuY2VndW5rbm93bmtkZXNjcmlwdGlvbnhmQ2xhdWRlIHByb3ZpZGVkIHRoaXMgZmlsZSBhdCB0aGUgcmVxdWVzdCBvZiBhIHVzZXIgYW5kIG1heSBoYXZlIGNyZWF0ZWQgb3IgbW9kaWZpZWQgdGhlIGZpbGUgY29udGVudHMubXNvZnR3YXJlQWdlbnShZG5hbWVmQ2xhdWRlcmFsbEFjdGlvbnNJbmNsdWRlZPUAAADIanVtYgAAAEBqdW1kY2JvcgARABCAAACqADibcRNjMnBhLmhhc2guZGF0YQAAAAAYYzJzaKTTJ2OWU1Y57QfdM7nH7SIAAACAY2JvcqVjYWxnZnNoYTI1NmNwYWRNAAAAAAAAAAAAAAAAAGRoYXNoWCAjejQ05BqzWecvwPH+2JBQLv7V4PMMzdPb3E1ll6//+2RuYW1lbmp1bWJmIG1hbmlmZXN0amV4Y2x1c2lvbnOBomVzdGFydBioZmxlbmd0aBkeBAAAAj5qdW1iAAAAJ2p1bWRjMmNsABEAEIAAAKoAOJtxA2MycGEuY2xhaW0udjIAAAACD2Nib3KlY2FsZ2ZzaGEyNTZpc2lnbmF0dXJleE1zZWxmI2p1bWJmPS9jMnBhL3VybjpjMnBhOmFkN2IzNTE0LTUyN2MtNDBjZi1hOTk3LWU2ZTY3MTk3YzlkYS9jMnBhLnNpZ25hdHVyZWppbnN0YW5jZUlEeCx4bXA6aWlkOjYzNjgyNzM3LTY2YTYtNDg4Ny1hODY0LTFlOWUwZjZkYmJkNHJjcmVhdGVkX2Fzc2VydGlvbnODomN1cmx4LXNlbGYjanVtYmY9YzJwYS5hc3NlcnRpb25zL2MycGEuaW5ncmVkaWVudC52M2RoYXNoWCAK5WUO3aoW/n13Y8TOR61qI9Wvsj+dzIz53xbKzPGO5KJjdXJseCpzZWxmI2p1bWJmPWMycGEuYXNzZXJ0aW9ucy9jMnBhLmFjdGlvbnMudjJkaGFzaFggt2IJ0idGjWjn/fTN1dzXiDf7P/g00zSJ5wwkSIfmXHWiY3VybHgpc2VsZiNqdW1iZj1jMnBhLmFzc2VydGlvbnMvYzJwYS5oYXNoLmRhdGFkaGFzaFggrqCyDPz+6APlE15tlopzVqaB+qhZBApf4ojc1wQ8+U90Y2xhaW1fZ2VuZXJhdG9yX2luZm+jZG5hbWVvQW50aHJvcGljIEZpbGVzZ3ZlcnNpb25lMS4wLjBrc3BlY1ZlcnNpb25lMi40LjAAABA4anVtYgAAAChqdW1kYzJjcwARABCAAACqADibcQNjMnBhLnNpZ25hdHVyZQAAABAIY2JvctKEWQISogEmGCFZAgowggIGMIIBjaADAgECAhRA5aAK7sI50L64g/oGQgU9Z1UTADAKBggqhkjOPQQDAzBJMRcwFQYDVQQKEw5BbnRocm9waWMsIFBCQzEuMCwGA1UEAxMlQW50aHJvcGljIENvbnRlbnQgQ3JlZGVudGlhbHMgUm9vdCBDQTAeFw0yNjA4MDcxODQzNTZaFw0yODA4MDYxOTQzNTZaMEQxFzAVBgNVBAoTDkFudGhyb3BpYywgUEJDMSkwJwYDVQQDEyBBbnRocm9waWMgQ2xhdWRlIENvbnRlbnQgU2lnbmluZzBZMBMGByqGSM49AgEGCCqGSM49AwEHA0IABJh6CmvLUBgFFNU0vUKlOVtE6djd17L5SuwX0LemFisBM3dkd/3cyjxFA3Qo5S46fX0/ihY0VZ7mfb9KF703t5OjWDBWMA4GA1UdDwEB/wQEAwIHgDAVBgNVHSUEDjAMBgorBgEEAYPoXgIBMAwGA1UdEwEB/wQCMAAwHwYDVR0jBBgwFoAUzlHiBIFOZFsj+OPEz5o+nMHXXMIwCgYIKoZIzj0EAwMDZwAwZAIwMXMdFJ4BetLLVY7ORuE9noqbbAZOZn/aArXyTwFAZfKrPzxF2vPoJNf1+UCdg1XGAjBwX1zd9WGqYkqmL5SFqw1QySjr1zJfpJM9+1rdDwSPLMOPOjKuiXjoU/pUUeG9RwmhY3BhZFkNngAAAAAAAAAAAAAAAAAAAAAAAAAAAAAAAAAAAAAAAAAAAAAAAAAAAAAAAAAAAAAAAAAAAAAAAAAAAAAAAAAAAAAAAAAAAAAAAAAAAAAAAAAAAAAAAAAAAAAAAAAAAAAAAAAAAAAAAAAAAAAAAAAAAAAAAAAAAAAAAAAAAAAAAAAAAAAAAAAAAAAAAAAAAAAAAAAAAAAAAAAAAAAAAAAAAAAAAAAAAAAAAAAAAAAAAAAAAAAAAAAAAAAAAAAAAAAAAAAAAAAAAAAAAAAAAAAAAAAAAAAAAAAAAAAAAAAAAAAAAAAAAAAAAAAAAAAAAAAAAAAAAAAAAAAAAAAAAAAAAAAAAAAAAAAAAAAAAAAAAAAAAAAAAAAAAAAAAAAAAAAAAAAAAAAAAAAAAAAAAAAAAAAAAAAAAAAAAAAAAAAAAAAAAAAAAAAAAAAAAAAAAAAAAAAAAAAAAAAAAAAAAAAAAAAAAAAAAAAAAAAAAAAAAAAAAAAAAAAAAAAAAAAAAAAAAAAAAAAAAAAAAAAAAAAAAAAAAAAAAAAAAAAAAAAAAAAAAAAAAAAAAAAAAAAAAAAAAAAAAAAAAAAAAAAAAAAAAAAAAAAAAAAAAAAAAAAAAAAAAAAAAAAAAAAAAAAAAAAAAAAAAAAAAAAAAAAAAAAAAAAAAAAAAAAAAAAAAAAAAAAAAAAAAAAAAAAAAAAAAAAAAAAAAAAAAAAAAAAAAAAAAAAAAAAAAAAAAAAAAAAAAAAAAAAAAAAAAAAAAAAAAAAAAAAAAAAAAAAAAAAAAAAAAAAAAAAAAAAAAAAAAAAAAAAAAAAAAAAAAAAAAAAAAAAAAAAAAAAAAAAAAAAAAAAAAAAAAAAAAAAAAAAAAAAAAAAAAAAAAAAAAAAAAAAAAAAAAAAAAAAAAAAAAAAAAAAAAAAAAAAAAAAAAAAAAAAAAAAAAAAAAAAAAAAAAAAAAAAAAAAAAAAAAAAAAAAAAAAAAAAAAAAAAAAAAAAAAAAAAAAAAAAAAAAAAAAAAAAAAAAAAAAAAAAAAAAAAAAAAAAAAAAAAAAAAAAAAAAAAAAAAAAAAAAAAAAAAAAAAAAAAAAAAAAAAAAAAAAAAAAAAAAAAAAAAAAAAAAAAAAAAAAAAAAAAAAAAAAAAAAAAAAAAAAAAAAAAAAAAAAAAAAAAAAAAAAAAAAAAAAAAAAAAAAAAAAAAAAAAAAAAAAAAAAAAAAAAAAAAAAAAAAAAAAAAAAAAAAAAAAAAAAAAAAAAAAAAAAAAAAAAAAAAAAAAAAAAAAAAAAAAAAAAAAAAAAAAAAAAAAAAAAAAAAAAAAAAAAAAAAAAAAAAAAAAAAAAAAAAAAAAAAAAAAAAAAAAAAAAAAAAAAAAAAAAAAAAAAAAAAAAAAAAAAAAAAAAAAAAAAAAAAAAAAAAAAAAAAAAAAAAAAAAAAAAAAAAAAAAAAAAAAAAAAAAAAAAAAAAAAAAAAAAAAAAAAAAAAAAAAAAAAAAAAAAAAAAAAAAAAAAAAAAAAAAAAAAAAAAAAAAAAAAAAAAAAAAAAAAAAAAAAAAAAAAAAAAAAAAAAAAAAAAAAAAAAAAAAAAAAAAAAAAAAAAAAAAAAAAAAAAAAAAAAAAAAAAAAAAAAAAAAAAAAAAAAAAAAAAAAAAAAAAAAAAAAAAAAAAAAAAAAAAAAAAAAAAAAAAAAAAAAAAAAAAAAAAAAAAAAAAAAAAAAAAAAAAAAAAAAAAAAAAAAAAAAAAAAAAAAAAAAAAAAAAAAAAAAAAAAAAAAAAAAAAAAAAAAAAAAAAAAAAAAAAAAAAAAAAAAAAAAAAAAAAAAAAAAAAAAAAAAAAAAAAAAAAAAAAAAAAAAAAAAAAAAAAAAAAAAAAAAAAAAAAAAAAAAAAAAAAAAAAAAAAAAAAAAAAAAAAAAAAAAAAAAAAAAAAAAAAAAAAAAAAAAAAAAAAAAAAAAAAAAAAAAAAAAAAAAAAAAAAAAAAAAAAAAAAAAAAAAAAAAAAAAAAAAAAAAAAAAAAAAAAAAAAAAAAAAAAAAAAAAAAAAAAAAAAAAAAAAAAAAAAAAAAAAAAAAAAAAAAAAAAAAAAAAAAAAAAAAAAAAAAAAAAAAAAAAAAAAAAAAAAAAAAAAAAAAAAAAAAAAAAAAAAAAAAAAAAAAAAAAAAAAAAAAAAAAAAAAAAAAAAAAAAAAAAAAAAAAAAAAAAAAAAAAAAAAAAAAAAAAAAAAAAAAAAAAAAAAAAAAAAAAAAAAAAAAAAAAAAAAAAAAAAAAAAAAAAAAAAAAAAAAAAAAAAAAAAAAAAAAAAAAAAAAAAAAAAAAAAAAAAAAAAAAAAAAAAAAAAAAAAAAAAAAAAAAAAAAAAAAAAAAAAAAAAAAAAAAAAAAAAAAAAAAAAAAAAAAAAAAAAAAAAAAAAAAAAAAAAAAAAAAAAAAAAAAAAAAAAAAAAAAAAAAAAAAAAAAAAAAAAAAAAAAAAAAAAAAAAAAAAAAAAAAAAAAAAAAAAAAAAAAAAAAAAAAAAAAAAAAAAAAAAAAAAAAAAAAAAAAAAAAAAAAAAAAAAAAAAAAAAAAAAAAAAAAAAAAAAAAAAAAAAAAAAAAAAAAAAAAAAAAAAAAAAAAAAAAAAAAAAAAAAAAAAAAAAAAAAAAAAAAAAAAAAAAAAAAAAAAAAAAAAAAAAAAAAAAAAAAAAAAAAAAAAAAAAAAAAAAAAAAAAAAAAAAAAAAAAAAAAAAAAAAAAAAAAAAAAAAAAAAAAAAAAAAAAAAAAAAAAAAAAAAAAAAAAAAAAAAAAAAAAAAAAAAAAAAAAAAAAAAAAAAAAAAAAAAAAAAAAAAAAAAAAAAAAAAAAAAAAAAAAAAAAAAAAAAAAAAAAAAAAAAAAAAAAAAAAAAAAAAAAAAAAAAAAAAAAAAAAAAAAAAAAAAAAAAAAAAAAAAAAAAAAAAAAAAAAAAAAAAAAAAAAAAAAAAAAAAAAAAAAAAAAAAAAAAAAAAAAAAAAAAAAAAAAAAAAAAAAAAAAAAAAAAAAAAAAAAAAAAAAAAAAAAAAAAAAAAAAAAAAAAAAAAAAAAAAAAAAAAAAAAAAAAAAAAAAAAAAAAAAAAAAAAAAAAAAAAAAAAAAAAAAAAAAAAAAAAAAAAAAAAAAAAAAAAAAAAAAAAAAAAAAAAAAAAAAAAAAAAAAAAAAAAAAAAAAAAAAAAAAAAAAAAAAAAAAAAAAAAAAAAAAAAAAAAAAAAAAAAAAAAAAAAAAAAAAAAAAAAAAAAAAAAAAAAAAAAAAAAAAAAAAAAAAAAAAAAAAAAAAAAAAAAAAAAAAAAAAAAAAAAAAAAAAAAAAAAAAAAAAAAAAAAAAAAAAAAAAAAAAAAAAAAAAAAAAAAAAAAAAAAAAAAAAAAAAAAAAAAAAAAAAAAAAAAAAAAAAAAAAAAAAAAAAAAAAAAAAAAAAAAAAAAAAAAAAAAAAAAAAAAAAAAAAAAAAAAAAAAAAAAAAAAAAAAAAAAAAAAAAAAAAAAAAAAAAAAAAAAAAAAAAAAAAAAAAAAAAAAAAAAAAAAAAAAAAAAAAAAAAAAAAAAAAAAAAAAAAAAAAAAAAAAAAAAAAAAAAAAAAAAAAAAAAAAAAAAAAAAAAAAAAAAAAAAAAAAAAAAAAAAAAAAAAAAAAAAAAAAAAAAAAAAAAAAAAAAAAAAAAAAAAAAAAAAAAAAAAAAAAAAAAAAAAAAAAAAAAAAAAAAAAAAAAAAAAAAAAAAAAAAAAAAAAAAAAAAAAAAAAAAAAAAAAAAAAAAAAAAAAAAAAAAAAAAAAAAAAAAAAAAAAAAAAAAAAAAAAAAAAAAAAAAAAAAAAAAAAAAAAAAAAAAAAAAAAAAAAAAAAAAAAAAAAAAAAAAAAAAAAAAAAAAAAAAAAAAAAAAAAAAAAAAAAAAAAAAAAAAAAAAAAAAAAAAAAAAAAAAAAAAAAAAAAAAAAAAAAAAAAAAAAAAAAAAAAAAAAAAAAAAAAAAAAAAAAAAAAAAAAAAAAAAAAAAAAAAAAAAAAAAAAAAAAAAAAAAAAAAAAAAAAAAAAAAAAAAAAAAAAAAAAAAAAAAAAAAAAAAAAAAAAAAAAAAAAAAAAAAAAAAAAAAAAAAAAAAAAAAAAAAAAAAAAAAAAAAAAAAAAAAAAAAAAAAAAAAAAAAAAAAAAAAAAAAAAAAAAAAAAAAAAAAAAAAAAAAAAAAAAAAAAAAAAAAAAAAAAAAAAAAAAAAAAAAAAAAAAAAAAAAAAAAAAAAAAAAAAAAAAAAAAAAAAAAAAAAAAAAAAAAAAAAAAAAAAAAAAAAAAAAAAAAAAAAAAAAAAAAAAAAAAAAAAAAAAAAAAAAAAAAAAAAAAAAAAAAAAAAAAAAAAAAAAAAAAAAAAAAAAAAAAAAAAAAAAAAAAAAAAAAAAAAAAAAAAAAAAAAAAAAAAAAAAAAAAAAAAAAAAAAAAAAAAAAAAAAAAAAAAAAAAAAAAAAAAAAAAAAAAAAAAAAAAAAAAAAAAAAAAAAAAAAAAAAAAAAAAAAAAAAAAAAAAAAAAAAAAAAAAAAAAAAAAAAAAAAAAAAAAAAAAAAAAAAAAAAAAAAAAAAAAAAAAAAAAAAAAAAAAAAAAAAAAAAAAAAAAAAAAAAAAAAAAAAAAAAAAAAAAAAAAAAAAAAAAAAAAAAAAAAAAAAAAAAAAPZYQDLoqG6KHbxXGZ0xUVNNhWwgESta2UbT9MzD+h9AjCv4YRaJstlwqcnLc9fQxmMGqRXzp5nPRdQndO52fqQMVyI=</c2pa:manifest></metadata><rect x="-164.12" y="-103.34" width="339.04" height="339.04" rx="0.00" fill="#7A1F2B"/><g fill="#EDE0CC"><path class="caps" d="M-110.67919921875 8.1005859375V25.400390625H-115.00048828125V8.1005859375H-121.66552734375V4.7607421875H-103.99951171875V8.1005859375ZM-82.35498046875 25.400390625V16.552734375H-91.34912109375V25.400390625H-95.67041015625V4.7607421875H-91.34912109375V12.978515625H-82.35498046875V4.7607421875H-78.03369140625V25.400390625ZM-68.00537109375 25.400390625V4.7607421875H-51.77490234375V8.1005859375H-63.68408203125V13.2861328125H-52.66845703125V16.6259765625H-63.68408203125V22.060546875H-51.17431640625V25.400390625ZM-18.02197265625 22.294921875Q-14.11083984375 22.294921875 -12.58740234375 18.369140625L-8.82275390625 19.7900390625Q-10.03857421875 22.7783203125 -12.3896484375 24.23583984375Q-14.74072265625 25.693359375 -18.02197265625 25.693359375Q-23.00244140625 25.693359375 -25.7197265625 22.87353515625Q-28.43701171875 20.0537109375 -28.43701171875 14.9853515625Q-28.43701171875 9.90234375 -25.81494140625 7.177734375Q-23.19287109375 4.453125 -18.21240234375 4.453125Q-14.57958984375 4.453125 -12.29443359375 5.91064453125Q-10.00927734375 7.3681640625 -9.08642578125 10.1953125L-12.89501953125 11.2353515625Q-13.37841796875 9.6826171875 -14.7919921875 8.76708984375Q-16.20556640625 7.8515625 -18.12451171875 7.8515625Q-21.05419921875 7.8515625 -22.5703125 9.66796875Q-24.08642578125 11.484375 -24.08642578125 14.9853515625Q-24.08642578125 18.544921875 -22.5263671875 20.419921875Q-20.96630859375 22.294921875 -18.02197265625 22.294921875ZM0.00439453125 25.400390625V4.7607421875H4.32568359375V22.060546875H15.39990234375V25.400390625ZM44.39794921875 14.9853515625Q44.39794921875 18.2080078125 43.12353515625 20.654296875Q41.84912109375 23.1005859375 39.47607421875 24.39697265625Q37.10302734375 25.693359375 33.93896484375 25.693359375Q29.07568359375 25.693359375 26.314453125 22.82958984375Q23.55322265625 19.9658203125 23.55322265625 14.9853515625Q23.55322265625 10.01953125 26.30712890625 7.236328125Q29.06103515625 4.453125 33.96826171875 4.453125Q38.87548828125 4.453125 41.63671875 7.265625Q44.39794921875 10.078125 44.39794921875 14.9853515625ZM39.98876953125 14.9853515625Q39.98876953125 11.6455078125 38.40673828125 9.74853515625Q36.82470703125 7.8515625 33.96826171875 7.8515625Q31.06787109375 7.8515625 29.48583984375 9.73388671875Q27.90380859375 11.6162109375 27.90380859375 14.9853515625Q27.90380859375 18.3837890625 29.5224609375 20.33935546875Q31.14111328125 22.294921875 33.93896484375 22.294921875Q36.83935546875 22.294921875 38.4140625 20.390625Q39.98876953125 18.486328125 39.98876953125 14.9853515625ZM70.49560546875 19.453125Q70.49560546875 22.4853515625 68.2470703125 24.08935546875Q65.99853515625 25.693359375 61.64794921875 25.693359375Q57.67822265625 25.693359375 55.42236328125 24.287109375Q53.16650390625 22.880859375 52.52197265625 20.0244140625L56.69677734375 19.3359375Q57.12158203125 20.9765625 58.35205078125 21.71630859375Q59.58251953125 22.4560546875 61.76513671875 22.4560546875Q66.29150390625 22.4560546875 66.29150390625 19.7021484375Q66.29150390625 18.8232421875 65.771484375 18.251953125Q65.25146484375 17.6806640625 64.306640625 17.2998046875Q63.36181640625 16.9189453125 60.68115234375 16.376953125Q58.36669921875 15.8349609375 57.45849609375 15.50537109375Q56.55029296875 15.17578125 55.81787109375 14.72900390625Q55.08544921875 14.2822265625 54.57275390625 13.65234375Q54.06005859375 13.0224609375 53.7744140625 12.1728515625Q53.48876953125 11.3232421875 53.48876953125 10.224609375Q53.48876953125 7.4267578125 55.5908203125 5.93994140625Q57.69287109375 4.453125 61.70654296875 4.453125Q65.54443359375 4.453125 67.470703125 5.654296875Q69.39697265625 6.85546875 69.95361328125 9.6240234375L65.76416015625 10.1953125Q65.44189453125 8.8623046875 64.453125 8.1884765625Q63.46435546875 7.5146484375 61.61865234375 7.5146484375Q57.69287109375 7.5146484375 57.69287109375 9.9755859375Q57.69287109375 10.78125 58.1103515625 11.2939453125Q58.52783203125 11.806640625 59.34814453125 12.16552734375Q60.16845703125 12.5244140625 62.67333984375 13.06640625Q65.64697265625 13.6962890625 66.9287109375 14.23095703125Q68.21044921875 14.765625 68.95751953125 15.47607421875Q69.70458984375 16.1865234375 70.10009765625 17.17529296875Q70.49560546875 18.1640625 70.49560546875 19.453125ZM79.67431640625 25.400390625V4.7607421875H95.90478515625V8.1005859375H83.99560546875V13.2861328125H95.01123046875V16.6259765625H83.99560546875V22.060546875H96.50537109375V25.400390625ZM115.00048828125 8.1005859375V25.400390625H110.67919921875V8.1005859375H104.01416015625V4.7607421875H121.68017578125V8.1005859375Z"/><g class="sig" transform="rotate(-4 0.00 77.55)"><path transform="translate(-130.42 88.45) scale(0.07600)" d="M0 51Q0 -2 138 -176.5Q276 -351 442 -500Q464 -555 464 -587Q464 -722 235 -722Q165 -722 111 -696Q78 -680 78 -656Q78 -632 113.5 -606.5Q149 -581 192 -561Q235 -541 270.5 -508.5Q306 -476 306 -440Q306 -420 302 -410Q298 -400 295 -400Q290 -400 288 -414Q288 -470 204 -515Q168 -534 132 -552Q48 -597 48 -649Q48 -673 70 -691.5Q92 -710 126 -720Q191 -738 237 -738Q283 -738 324 -731Q365 -724 409.5 -708Q454 -692 482.5 -658.5Q511 -625 511 -579Q511 -573 509 -557Q718 -728 839 -728Q889 -728 889 -686Q889 -638 832.5 -560Q776 -482 695.5 -420.5Q615 -359 556 -359Q487 -359 482 -430Q482 -446 492 -446Q499 -446 505.5 -431Q512 -416 530.5 -398.5Q549 -381 569 -381Q615 -381 679 -443Q743 -505 786.5 -575.5Q830 -646 830 -677Q830 -699 807 -699Q706 -699 498 -517Q465 -422 370 -280.5Q275 -139 173 -33Q71 73 24 73Q0 73 0 51ZM43 45Q92 45 219 -123Q346 -291 419 -445Q271 -303 155 -155.5Q39 -8 39 40Q39 45 43 45Z"/><path transform="translate(-100.78 88.45) scale(0.07600)" d="M189 -86Q245 -86 323 -149L340 -144Q242 -62 171 -62Q163 -62 159 -63Q132 -30 100 -9.5Q68 11 44 11Q6 11 6 -31.5Q6 -74 77 -145Q65 -174 65 -206Q65 -238 88 -258Q111 -278 141.5 -278Q172 -278 193 -258Q214 -238 214 -201Q214 -144 177 -87Q181 -86 189 -86ZM157 -96Q188 -148 188 -184.5Q188 -221 170 -238.5Q152 -256 135 -256Q100 -256 100 -220Q100 -184 116 -148.5Q132 -113 157 -96ZM47 -37Q47 -17 73 -17Q99 -17 139 -70Q112 -84 91 -119Q47 -71 47 -37Z"/><path transform="translate(-83.22 88.45) scale(0.07600)" d="M189 -86Q245 -86 323 -149L340 -144Q242 -62 171 -62Q163 -62 159 -63Q132 -30 100 -9.5Q68 11 44 11Q6 11 6 -31.5Q6 -74 77 -145Q65 -174 65 -206Q65 -238 88 -258Q111 -278 141.5 -278Q172 -278 193 -258Q214 -238 214 -201Q214 -144 177 -87Q181 -86 189 -86ZM157 -96Q188 -148 188 -184.5Q188 -221 170 -238.5Q152 -256 135 -256Q100 -256 100 -220Q100 -184 116 -148.5Q132 -113 157 -96ZM47 -37Q47 -17 73 -17Q99 -17 139 -70Q112 -84 91 -119Q47 -71 47 -37Z"/><path transform="translate(-65.66 88.45) scale(0.07600)" d="M-82 111Q-71 116 -63 121Q-57 109 -49 101Q-70 107 -81 109Q-81 110 -82 111ZM234.5 -296Q229 -302 234.5 -296Q240 -290 240 -279Q240 -268 225 -251Q210 -234 199 -234Q188 -234 183 -240.5Q178 -247 178 -255.5Q178 -264 194 -283Q210 -302 234.5 -296ZM-54 195Q-54 181 -57 169Q-214 382 -214 402Q-214 411 -206 411Q-186 411 -149.5 376.5Q-113 342 -83.5 289.5Q-54 237 -54 195ZM-76 139Q-101 114 -143 114Q-156 112 -156 103Q-155 95 -144 95Q-142 95 -112 98Q-86 98 -35 81L132 -152Q134 -155 134 -158.5Q134 -162 131 -162Q128 -162 125 -159L73 -116L69 -131L120 -174Q156 -210 170 -210Q175 -210 180 -205.5Q185 -201 185 -193Q185 -164 28 52Q68 30 85 7Q89 2 95 2Q101 2 101 9Q101 42 8 80L-38 143Q-20 165 -20 206Q-20 247 -61 306.5Q-102 366 -153 405Q-204 444 -233 444Q-262 444 -262 418Q-262 399 -76 139Z"/><path transform="translate(-51.53 88.45) scale(0.07600)" d="M215 -120Q209 -120 209 -124.5Q209 -129 216 -135Q249 -162 249 -184Q249 -198 224 -200Q179 -199 116.5 -135Q54 -71 54 -39Q54 -28 66.5 -28Q79 -28 100 -45Q119 -57 171 -105Q183 -117 194 -117Q208 -117 208 -104Q208 -99 205 -96Q202 -93 194 -83.5Q186 -74 180 -66Q162 -40 162 -32Q162 -12 178 -12Q199 -12 257 -50.5Q315 -89 363 -128L411 -166Q418 -171 424 -171Q430 -171 430 -164L430 -162Q353 -97 267.5 -40Q182 17 155 17Q123 17 123 -17Q123 -25 126 -32Q129 -39 129 -42Q129 -45 127 -46Q124 -46 88.5 -19Q53 8 26.5 8Q0 8 0 -20Q0 -48 37.5 -95.5Q75 -143 138 -182Q201 -221 261 -221Q275 -221 284.5 -214Q294 -207 294 -192.5Q294 -178 265 -149Q236 -120 215 -120Z"/><path transform="translate(-13.53 88.45) scale(0.07600)" d="M518 -16Q545 -16 595 -63Q645 -110 704 -187Q674 -182 648 -182Q583 -182 552 -212.5Q521 -243 521 -298.5Q521 -354 557.5 -430Q594 -506 648.5 -572Q703 -638 774 -683.5Q845 -729 907 -729Q975 -729 975 -657Q975 -585 918 -467Q861 -349 776 -233Q837 -257 904 -300Q971 -343 992.5 -354Q1014 -365 1025 -365Q1036 -365 1042.5 -359.5Q1049 -354 1049 -347Q1049 -333 1016.5 -327Q984 -321 894 -269Q804 -217 751 -200Q679 -105 612.5 -46Q546 13 504 13Q446 13 446 -70Q446 -93 451 -136.5Q456 -180 456 -193Q456 -271 409 -271Q392 -271 373 -265Q315 -179 280 -131Q245 -83 197 -26Q105 83 30 83Q0 83 0 61Q0 15 110 -93.5Q220 -202 325 -262Q388 -358 424 -411.5Q460 -465 516 -539Q572 -613 617 -659Q684 -726 731 -726Q750 -726 750 -715Q750 -708 744 -705Q730 -697 722 -693Q642 -640 550 -519Q491 -440 391 -292Q410 -298 428.5 -298Q447 -298 461.5 -290Q476 -282 482 -267Q492 -242 492 -208L479 -72Q479 -16 518 -16ZM698 -215Q712 -215 727 -218Q814 -336 876.5 -459Q939 -582 939 -644.5Q939 -707 887 -707Q824 -707 748.5 -642Q673 -577 622 -486.5Q571 -396 571 -325Q571 -215 698 -215ZM61 55Q97 55 154 -16.5Q211 -88 307 -234Q219 -182 131 -89.5Q43 3 43 40Q43 55 61 55Z"/><path transform="translate(46.28 88.45) scale(0.07600)" d="M132 -13Q132 -28 146.5 -52Q161 -76 162 -80Q163 -84 160 -84Q157 -84 151.5 -78.5Q146 -73 90.5 -36.5Q35 0 14 0Q0 0 0 -18Q0 -36 56 -111Q112 -186 135 -186Q140 -186 144.5 -181.5Q149 -177 149 -174.5Q149 -172 97.5 -113Q46 -54 46 -37Q46 -33 50 -33Q69 -33 132 -84Q195 -135 221.5 -163Q248 -191 263 -191Q278 -191 278 -178Q278 -170 272 -162Q266 -154 249.5 -133.5Q233 -113 219 -95Q180 -45 180 -32.5Q180 -20 190.5 -20Q201 -20 242 -48Q318 -98 381 -149L403 -167Q410 -172 415 -172Q420 -172 420 -166L420 -163Q424 -163 366.5 -119Q309 -75 243.5 -31Q178 13 161 13Q132 13 132 -13Z"/><path transform="translate(68.25 88.45) scale(0.07600)" d="M409 -166Q416 -171 422 -171Q428 -171 428 -164L428 -162Q331 -82 276 -46L76 84L14 171Q-130 368 -130 383Q-146 418 -161 418Q-180 418 -180 393Q-180 368 -155.5 326Q-131 284 -107 258L-12 158Q0 139 37 88Q74 37 86 20L129 -44L131 -48Q131 -50 129 -50Q70 -1 31 -1Q-8 -1 -8 -23.5Q-8 -46 22 -83Q52 -120 94.5 -155Q137 -190 188.5 -215.5Q240 -241 279.5 -241Q319 -241 319 -213Q319 -193 281.5 -165Q244 -137 235.5 -137Q227 -137 227 -141Q227 -147 235 -152Q269 -176 269 -197.5Q269 -219 251 -219Q207 -219 128.5 -144.5Q50 -70 50 -39Q50 -30 64.5 -30Q79 -30 114 -53.5Q149 -77 167 -99L194 -133Q199 -140 207 -140Q215 -140 221 -135Q227 -130 227 -125L106 43L254 -50Q320 -90 386 -146L409 -166Z"/><path transform="translate(90.82 88.45) scale(0.07600)" d="M215 -120Q209 -120 209 -124.5Q209 -129 216 -135Q249 -162 249 -184Q249 -198 224 -200Q179 -199 116.5 -135Q54 -71 54 -39Q54 -28 66.5 -28Q79 -28 100 -45Q119 -57 171 -105Q183 -117 194 -117Q208 -117 208 -104Q208 -99 205 -96Q202 -93 194 -83.5Q186 -74 180 -66Q162 -40 162 -32Q162 -12 178 -12Q199 -12 257 -50.5Q315 -89 363 -128L411 -166Q418 -171 424 -171Q430 -171 430 -164L430 -162Q353 -97 267.5 -40Q182 17 155 17Q123 17 123 -17Q123 -25 126 -32Q129 -39 129 -42Q129 -45 127 -46Q124 -46 88.5 -19Q53 8 26.5 8Q0 8 0 -20Q0 -48 37.5 -95.5Q75 -143 138 -182Q201 -221 261 -221Q275 -221 284.5 -214Q294 -207 294 -192.5Q294 -178 265 -149Q236 -120 215 -120Z"/><path transform="translate(113.62 88.45) scale(0.07600)" d="M333 -166Q340 -171 346 -171Q352 -171 352 -164L352 -162Q277 -102 204 -49.5Q131 3 97 3Q72 3 72 -24Q72 -51 96 -78Q120 -105 143.5 -125Q167 -145 167 -151.5Q167 -158 159.5 -166.5Q152 -175 147 -178Q130 -161 73 -116L69 -131Q132 -181 142 -198L142 -207Q142 -232 147 -241Q152 -250 171 -266Q190 -282 197 -282Q204 -282 209.5 -277Q215 -272 215 -267Q215 -262 211.5 -255.5Q208 -249 204.5 -244.5Q201 -240 195 -233.5Q189 -227 187.5 -224.5Q186 -222 184.5 -216Q183 -210 178 -206Q173 -202 173 -196Q173 -190 181 -169.5Q189 -149 189 -139.5Q189 -130 152 -94.5Q115 -59 115 -37Q115 -25 126 -25Q140 -25 178 -50L190 -58Q255 -103 312 -149L333 -166Z"/></g></g></svg>